<svg xmlns="http://www.w3.org/2000/svg" width="114" height="37" viewBox="0 0 114 37" fill="none"><g clip-path="url(#clip0_682_1262)"><path d="M8.29913 28.2684C2.727 26.4581 0 21.414 0 16.8238C0 10.0985 5.65429 4.05385 13.2447 4.70885C14.5954 6.46241 15.6687 8.43258 16.362 10.5781C3.04027 13.9408 6.98955 26.9635 8.30426 28.2735L8.29913 28.2684Z" fill="#00552B"></path><path d="M33.289 17.5872C33.289 28.2993 24.6406 36.9949 13.974 36.9949C13.3834 36.9949 12.8082 36.9691 12.233 36.9124C11.3805 34.7204 7.7137 24.2197 17.2762 15.1012C20.5938 11.9397 22.6994 6.27157 22.1242 -0.00512695C28.7183 3.07907 33.289 9.79415 33.289 17.582V17.5872Z" fill="#00B228"></path><path d="M44.4794 7.7724H48.0076L52.7426 17.4273H49.8615L49.0039 15.7047H43.4215L42.5895 17.4273H39.6057L44.4743 7.7724H44.4794ZM48.0846 13.6932L46.2152 9.84056L44.3715 13.6932H48.0846Z" fill="#00552B"></path><path d="M65.8332 7.7724H73.2952C74.8256 7.7724 75.5035 7.91681 75.9965 8.38099C76.505 8.82969 76.7361 9.65489 76.7361 10.9597C76.7361 12.7546 76.3458 13.4663 75.2416 13.7396C76.3201 13.9408 76.6436 14.4514 76.6179 15.911V17.4324H73.9423V16.2307C73.9269 15.1889 73.6701 14.9723 72.4889 14.9981H68.4523V17.4324H65.8332V7.7724ZM72.566 12.7752C73.8396 12.7752 74.0861 12.5998 74.0861 11.6457C74.0861 11.0216 74.0347 10.6245 73.8653 10.4234C73.6701 10.1913 73.4493 10.15 72.6584 10.15H68.4523V12.7752H72.566Z" fill="#00552B"></path><path d="M87.9984 7.7724V9.95919H81.0038V11.6251H87.5979V13.5333H81.0038V15.2405H88.0909V17.4273H78.4103V7.7724H87.9984Z" fill="#00552B"></path><path d="M93.3908 12.605L89.3029 7.7724H92.7797L95.558 11.2331L98.3877 7.7724H101.772L97.6996 12.5637L102.044 17.4273H98.4648L95.558 13.9511L92.6359 17.4273H89.082L93.3908 12.605Z" fill="#00552B"></path><path d="M58.2788 13.9201H61.6118C61.6118 13.9201 61.6426 14.3379 61.5707 14.5442C61.3498 15.1837 61.0263 15.2817 59.3007 15.2662C58.2188 15.2662 57.5837 15.2611 57.3954 15.2508C56.7073 15.2353 56.3426 15.1476 56.0448 14.931C55.6801 14.6577 55.562 14.1367 55.562 12.8319C55.562 12.2078 55.5877 11.3259 55.6288 11.068C55.6956 10.4594 55.901 10.1861 56.3786 10.052C56.5874 9.99354 57.1113 9.96431 57.9501 9.96431L58.9104 9.94884L59.8451 9.96431H60.5076C61.2215 9.9901 61.5347 10.2325 61.5861 10.8308H64.1744C64.159 8.9586 63.7122 8.2417 62.4232 7.87552C61.8788 7.73111 61.1239 7.68469 58.7615 7.68469C57.113 7.68469 56.0602 7.72595 55.4645 7.81363C54.35 7.98899 53.7389 8.3758 53.3486 9.1288C53.0096 9.80959 52.9069 10.6348 52.9069 12.703C52.9069 14.4978 52.9737 15.1786 53.2305 15.8284C53.5283 16.6227 54.0881 17.0714 55.0331 17.3035C55.5774 17.4324 56.3426 17.4788 58.3301 17.4788C60.8876 17.4788 61.6785 17.4633 61.9507 17.4376C63.0395 17.3086 63.6506 16.8754 63.9485 15.978C64.1179 15.4571 64.1693 15.0341 64.1693 13.4405V12.1098H58.2634V13.9047L58.2788 13.9201Z" fill="#00552B"></path><path d="M39.503 22.3372H45.2497C46.5696 22.3372 47.4169 22.6157 47.8843 23.1778C48.3105 23.7091 48.4749 24.5755 48.4749 26.2723C48.4749 27.9692 48.2797 28.8356 47.7508 29.3772C47.3142 29.8259 46.5798 30.0373 45.4141 30.0373H39.503V22.3372ZM45.0648 28.6293C45.6246 28.6293 46.0098 28.5468 46.2871 28.3766C46.6928 28.1342 46.8572 27.5462 46.8572 26.3549C46.8572 24.2196 46.5542 23.7916 45.0648 23.7916H41.1002V28.6293H45.0648Z" fill="#00B228"></path><path d="M58.5869 23.018C58.8796 23.3738 59.0337 23.8741 59.0953 24.6477C59.1261 25.0036 59.1364 25.4214 59.1364 26.2775C59.1364 28.2064 58.972 28.9439 58.4431 29.4648C58.0579 29.8362 57.5392 30.0167 56.6713 30.0786C56.3375 30.0992 55.0844 30.125 54.1189 30.125C52.003 30.125 51.433 30.058 50.8424 29.6969C50.3853 29.4184 50.0875 28.8872 49.9899 28.129C49.9283 27.6185 49.9077 27.2059 49.9077 25.9474C49.9077 24.1474 50.0618 23.4306 50.5599 22.9457C50.9348 22.5744 51.4227 22.4042 52.3112 22.3217C52.6655 22.2856 53.7029 22.265 54.9663 22.265C57.416 22.265 58.0682 22.4042 58.5869 23.0283V23.018ZM51.5306 26.195C51.5306 27.6958 51.6333 28.1806 52.0184 28.4024C52.4036 28.6345 52.7323 28.6706 54.7146 28.6706C56.4967 28.6706 56.9435 28.5881 57.2259 28.2425C57.4622 27.9537 57.5392 27.4586 57.5392 26.1537C57.5392 23.74 57.5187 23.7194 54.5298 23.7194C51.5408 23.7194 51.5306 23.7555 51.5306 26.2001V26.195Z" fill="#00B228"></path><path d="M63.933 22.3372H69.9006C71.6313 22.3372 72.2373 22.8684 72.2373 24.3898C72.2373 25.3801 71.9703 25.8546 71.3129 26.0196C72.1551 26.1486 72.4941 26.6643 72.4941 27.8196C72.4941 29.4133 71.8521 30.0373 70.2036 30.0373H63.9382V22.3372H63.933ZM69.2741 25.4987C69.916 25.4987 70.1574 25.4626 70.332 25.3595C70.5272 25.2305 70.635 24.9778 70.635 24.6219C70.635 24.23 70.522 23.9515 70.3012 23.8277C70.1471 23.7245 69.8955 23.6781 69.4281 23.6781H65.4943V25.5039H69.2689L69.2741 25.4987ZM69.6182 28.6964C70.5836 28.6964 70.8712 28.4643 70.8712 27.6907C70.8712 27.2884 70.7583 26.9841 70.5477 26.85C70.3834 26.7468 70.0804 26.7004 69.5103 26.7004H65.4943V28.6964H69.613H69.6182Z" fill="#00B228"></path><path d="M73.9885 22.3371H79.8482C81.0603 22.3371 81.6098 22.497 81.9847 22.9509C82.2877 23.3222 82.4315 23.9205 82.4315 24.7973C82.4315 25.674 82.339 26.1124 82.1285 26.4012C81.923 26.6901 81.6714 26.8293 81.2554 26.9067C82.1285 26.9892 82.3236 27.2883 82.3133 28.5107V30.0321H80.7059V28.8769C80.6854 27.8247 80.4697 27.6184 79.4169 27.6287H75.5703V30.0321H73.9834V22.332L73.9885 22.3371ZM79.3758 26.2156C80.5364 26.2156 80.8292 25.9835 80.8292 25.0603C80.8292 23.9978 80.5929 23.7812 79.4066 23.7812H75.5806V26.2156H79.3758Z" fill="#00B228"></path><path d="M86.0161 28.5107L85.2458 30.0321H83.4534L87.4181 22.332H89.5853L93.4884 30.0321H91.7474L90.9565 28.5107H86.0161ZM88.4863 23.5852L86.6272 27.2677H90.3608L88.4812 23.5852H88.4863Z" fill="#00B228"></path><path d="M95.8199 27.603V27.6855C95.8199 28.1806 95.9021 28.4488 96.1024 28.5726C96.354 28.7325 96.8933 28.8047 97.905 28.8047C98.7678 28.8047 99.307 28.7686 100.052 28.6654C100.447 28.6087 100.642 28.5262 100.766 28.3663C100.899 28.1806 100.971 27.9485 100.971 27.7061C100.971 27.2574 100.796 27.0357 100.319 26.9222C100.026 26.8551 100.016 26.8551 98.131 26.8397H97.1347C95.671 26.8294 95.101 26.7004 94.7158 26.3084C94.382 25.9835 94.2279 25.4987 94.2279 24.8179C94.2279 23.9618 94.4128 23.2604 94.7466 22.9354C95.2139 22.4506 96.2719 22.265 98.5521 22.265C99.9438 22.265 100.688 22.3217 101.166 22.4867C102.029 22.7652 102.327 23.281 102.327 24.4724V24.6219H100.771C100.76 24.1732 100.658 23.9411 100.437 23.8277C100.144 23.6781 99.4816 23.5853 98.7164 23.5853C97.4068 23.5853 96.4978 23.6781 96.1846 23.8535C95.9381 23.9824 95.8097 24.2454 95.8097 24.6013C95.8097 24.9365 95.9021 25.1532 96.1024 25.2821C96.3438 25.4317 96.7341 25.4781 97.8228 25.4781H98.9937C101.069 25.4781 101.7 25.607 102.137 26.1228C102.429 26.458 102.563 26.9634 102.563 27.7268C102.563 28.5365 102.409 29.0883 102.065 29.4597C101.608 29.9445 100.714 30.1044 98.3826 30.1044C95.8918 30.1044 95.1164 29.9754 94.6798 29.5164C94.3666 29.1812 94.233 28.7222 94.233 27.995C94.233 27.9279 94.233 27.7525 94.2433 27.603H95.8097H95.8199Z" fill="#00B228"></path><path d="M104.057 22.3372H105.655V30.0373H104.057V22.3372Z" fill="#00B228"></path><path d="M107.349 22.3372H108.947V28.5932H114V30.0373H107.349V22.3372Z" fill="#00B228"></path></g><defs><clipPath id="clip0_682_1262"><rect width="114" height="37" fill="white"></rect></clipPath></defs></svg>