<?xml version="1.0"?>
<svg xmlns="http://www.w3.org/2000/svg" xmlns:xlink="http://www.w3.org/1999/xlink" width="478" height="110.459" viewBox="0 0 478 110.459" enable-background="new 0 0 478 110.459">
<g>
	<g>
		<path fill="#003F86" d="M390.39,40.507c-1.486,3.612-2.985,7.463-4.601,11.203c-13.438-11.454-32.848-13.315-49.892-9.207
			c-10.331,2.359-21.405,10.823-23.396,22.02c-1.867,11.32,0.375,22.892,9.582,29.985c13.064,9.957,32.971,10.079,48.773,6.475
			l4.232-1.616c0-3.052-0.056-9.544-0.056-20.907c-3.23,0-7.284,0.252-10.65,0.62c0-2.616,0.252-5.35,0-7.96
			c8.471,1.247,18.113,0.657,25.115,0.866v31.981c-18.192,4.834-41.035,7.217-61.193,3.23
			c-13.316-2.487-28.124-11.694-31.607-25.876c-3.359-13.064,0.498-26.503,11.32-34.721c17.296-12.936,41.312-14.054,63.091-11.197
			C377.829,36.275,384.426,37.774,390.39,40.507"/>
		<path fill="#003F86" d="M476.624,35.956c-0.749,2.862-0.129,5.294-0.129,8.156c-7.34-1.117-15.429-1.24-23.021-1.24h-34.34
			c0,21.288-0.123,14.68-0.123,22.02c18.162,0.129,36.33-0.117,54.621-0.369c-0.497,2.61-0.497,5.098-0.123,7.592
			c-18.168-0.627-36.207,0-54.375,0c0,26.264-0.123,18.789,0,27.744c11.196,0.251,22.271,0,33.474-0.123
			c8.335-0.123,17.002-0.043,25.214-1.29c0,2.862-0.571,6.94,0.178,9.674c-71.543,0-15.141,0-73.649,0
			c0-25.373-0.11-48.474,0.019-72.359C434.36,35.76,408.736,35.956,476.624,35.956"/>
		<path fill="#003F86" d="M281.743,37.239v72.022h-5.939c-22.523-17.91-46.17-36.275-68.816-53.571
			c-0.037,4.582-0.019,21.479-0.019,52.834c-3.114-0.246-7.278-0.497-10.521,0V37.049c-0.123-0.11,7.966,0,8.298,0
			c2.027,0,44.358,33.321,66.506,50.371c0.043-27.147,0-21.393,0-50.181C274.618,37.614,278.506,37.368,281.743,37.239"/>
		<path fill="#003F86" d="M179.926,36.938v44.137c0,10.079-7.033,19.655-16.485,24.01c-12.198,5.602-27.129,6.474-41.066,4.226
			c-10.073-1.615-21.522-6.093-25.631-16.915c-1.37-3.74-1.99-7.721-2.119-11.946l0.142-43.492c8.863,1.068,6.996,0.608,14.464,0
			c0,36.533-0.233,29.924,0.271,44.855c0.246,7.469,4.416,15.81,12.253,18.543c9.827,3.359,22.148,3.857,32.227,0.627
			c6.345-1.997,12.321-7.967,14.182-14.44c0.872-3.23,1.118-6.713,1.37-10.202V37.099C175.798,37.872,176.265,37.565,179.926,36.938"/>
		<path fill="#003F86" d="M58.417,76.469c-12.813-4.478-26.952-2.586-41.349-2.598l-0.086,28.37
			c20.244,0.067,21.773,0.11,32.228-0.639c6.099-0.498,12.321-3.108,15.435-8.716c2.235-3.851,1.492-9.704-1.247-13.058
			C62.029,78.207,60.285,77.089,58.417,76.469 M50.211,44.739c-25.993-0.196-22.542-0.252-33.247,0c0,17.929-0.098,1.4-0.098,22.148
			c10.822,0.122,22.64,0.497,33.345-1.493c4.975-0.872,11.068-3.488,12.567-9.213c0.743-3.102,0.117-6.216-2.242-8.328
			C57.674,45.488,53.939,44.77,50.211,44.739 M71.236,41.877c4.478,2.862,6.222,8.089,5.227,13.187
			c-1.492,7.961-10.079,12.444-16.675,14.68c7.217,1.247,15.183,2.746,19.286,9.711c3.482,5.97,2.739,14.809-1.99,20.035
			c-9.207,10.073-23.144,9.207-36.208,9.827l-40.838-0.055C0.037,71.93,0,68.238,0,36.938c23.217,0,27.437,0.08,41.373,0.08
			C51.207,37.147,62.778,36.772,71.236,41.877"/>
		<path fill="#003F86" d="M139.554,0c-6.295,0-12.1,2.107-16.755,5.645h33.511C151.66,2.107,145.855,0,139.554,0"/>
		<path fill="#003F86" d="M167.242,27.683c0-1.143-0.074-2.261-0.215-3.366h-54.947c-0.129,1.105-0.209,2.224-0.209,3.366
			c0,0.964,0.049,1.916,0.141,2.85h55.082C167.193,29.599,167.242,28.646,167.242,27.683"/>
		<path fill="#003F86" d="M139.554,55.371c6.609,0,12.665-2.315,17.425-6.167h-34.844C126.895,53.056,132.951,55.371,139.554,55.371"/>
		<path fill="#003F86" d="M162.273,11.873H116.84c-1.339,1.91-2.438,3.998-3.261,6.216h51.956
			C164.712,15.871,163.606,13.783,162.273,11.873"/>
		<path fill="#003F86" d="M113.401,36.754c0.768,2.218,1.8,4.306,3.077,6.223h46.152c1.277-1.917,2.315-4.005,3.083-6.223H113.401z"/>
	</g>
</g>
</svg>
