<svg width="167" height="56" viewBox="0 0 167 56" fill="none" xmlns="http://www.w3.org/2000/svg">
<path d="M28.258 26.6812C28.258 29.0423 26.3384 30.9536 23.963 30.9536C21.5876 30.9536 19.668 29.0423 19.668 26.6812C19.668 24.32 21.5918 22.4087 23.963 22.4087C26.3342 22.4087 28.258 24.32 28.258 26.6812Z" fill="#96C121"/>
<path d="M41.1246 26.6812C41.1246 29.0423 39.2008 30.9536 36.832 30.9536C34.4631 30.9536 32.5352 29.0423 32.5352 26.6812C32.5352 24.32 34.4566 22.4087 36.832 22.4087C39.2073 22.4087 41.1246 24.32 41.1246 26.6812Z" fill="#96C121"/>
<path d="M60.4064 34.7329L55.3625 28.3776C54.8718 27.7355 54.0677 27.7337 53.571 28.3734L48.4577 34.9667C47.9652 35.6046 48.2216 36.1267 49.0315 36.125H51.2829C48.024 44.747 39.4155 50.595 29.8933 50.1612C19.1795 49.6711 10.3479 41.3694 9.23115 30.8046H9.22996V29.1033C9.22996 28.4357 8.68759 27.8945 8.01824 27.8945H4.57891C3.90955 27.8945 3.36719 28.4357 3.36719 29.1033C3.36719 31.3624 3.64193 33.6179 4.24363 35.7962C5.55148 40.531 8.12624 44.8699 11.7383 48.3247C16.5685 52.9514 22.9197 55.665 29.6268 55.9706C36.3281 56.2786 42.9029 54.1542 48.1403 49.9891C52.6317 46.4163 55.8716 41.7706 57.4436 36.3356L57.4999 36.0989L59.8266 36.1078C60.639 36.1078 60.8995 35.3725 60.407 34.7329H60.4064Z" fill="#96C121"/>
<path d="M32.157 0.0493698C19.8416 -0.696532 7.76298 7.10131 3.19737 17.2271C3.17957 17.2662 3.141 17.2912 3.09827 17.2912H0.838023C0.0137928 17.2912 -0.246709 17.9736 0.255899 18.6097L5.45288 25.2836C5.95371 25.9233 6.77378 25.9601 7.27046 25.3181L12.398 18.5996C12.8971 17.9599 12.63 17.2917 11.8076 17.2917H9.99534C9.9093 17.2917 9.85471 17.1968 9.89921 17.1232C14.0601 10.2612 22.7528 5.30688 31.7903 5.85518C39.7098 6.33583 46.5771 10.9163 50.0829 17.56C51.2988 19.8647 51.9059 22.4407 51.9059 25.0445C51.9059 25.451 52.2358 25.7797 52.6435 25.7797H57.2476C57.6547 25.7797 57.9852 25.4504 57.9852 25.0445V24.7484C57.9852 22.6389 57.6547 20.537 56.9503 18.548C53.2837 8.19495 43.5823 0.744833 32.157 0.0499638V0.0493698Z" fill="#0D0D0D"/>
<path d="M81.8426 31.1234H73.7119C73.6187 31.1234 73.5493 31.2077 73.5653 31.2991C73.9498 33.4608 75.7146 34.3658 77.6811 34.3658C79.0501 34.3658 80.1271 34.1159 81.3252 33.4923C81.3459 33.4816 81.3697 33.4757 81.3934 33.4757H81.3999C81.4818 33.4757 81.5483 33.5421 81.5483 33.624V34.9164C81.5483 34.9692 81.5198 35.0191 81.4741 35.0452C80.2434 35.7543 78.967 36.019 77.4046 36.019C73.8982 36.019 71.6035 33.8151 71.6035 30.3823C71.6035 26.9495 74.0471 24.7664 77.0224 24.7664C79.9977 24.7664 82.1648 26.6522 82.1648 29.5978C82.1648 30.0078 82.1108 30.5799 81.9856 31.0154C81.9672 31.0795 81.9091 31.1234 81.842 31.1234H81.8426ZM80.3799 29.3011C80.295 27.6271 79.1688 26.3133 77.0438 26.3133C75.4297 26.3133 73.916 27.2978 73.5635 29.4239C73.5487 29.5147 73.6181 29.5978 73.7101 29.5978H80.2315C80.3134 29.5978 80.3799 29.5313 80.3799 29.4495V29.3011Z" fill="#0D0D0D"/>
<path d="M84.1145 31.2722V25.2533C84.1145 25.1714 84.1809 25.105 84.2628 25.105H86.027C86.1089 25.105 86.1753 25.1714 86.1753 25.2533V31.1025C86.1753 33.0731 87.2168 34.1116 89.0652 34.1116C90.9136 34.1116 91.955 33.0524 91.955 31.1238V25.2747C91.955 25.1928 92.0215 25.1263 92.1034 25.1263H93.8676C93.9495 25.1263 94.0159 25.1928 94.0159 25.2747V31.2722C94.0159 34.2813 91.9972 35.9766 89.0432 35.9766C86.0893 35.9766 84.1133 34.2599 84.1133 31.2722H84.1145Z" fill="#0D0D0D"/>
<path d="M97.5487 24.936H99.7289C99.7965 24.936 99.8559 24.9817 99.8725 25.0469L100.149 26.1127C100.157 26.1435 100.185 26.1649 100.217 26.1649H100.297C100.319 26.1649 100.34 26.1542 100.353 26.1364C100.973 25.2819 102.047 24.6387 103.393 24.6179H103.605C103.687 24.6179 103.753 24.6844 103.753 24.7663V27.4793C103.753 27.5612 103.687 27.6276 103.605 27.6276H103.371C101.905 27.6276 100.481 28.4115 100.481 30.5519V35.5323C100.481 35.6142 100.415 35.6806 100.333 35.6806H97.5487C97.4669 35.6806 97.4004 35.6142 97.4004 35.5323V25.0849C97.4004 25.003 97.4669 24.9366 97.5487 24.9366V24.936Z" fill="#0D0D0D"/>
<path d="M115.001 31.2295H107.575C107.477 31.2295 107.405 31.3226 107.431 31.4164C107.884 33.0453 109.438 33.5182 110.934 33.5182C112.43 33.5182 113.361 33.3099 114.476 32.831C114.495 32.8233 114.514 32.8192 114.534 32.8192H114.568C114.65 32.8192 114.717 32.8856 114.717 32.9675V34.9987C114.717 35.0527 114.687 35.1032 114.639 35.1293C113.489 35.7559 112.192 36.0188 110.467 36.0188C106.854 36.0188 104.453 33.8149 104.453 30.34C104.453 26.865 106.918 24.6184 110.148 24.6184C113.378 24.6184 115.439 26.7167 115.439 29.3864C115.439 29.9483 115.363 30.6052 115.138 31.141C115.116 31.1956 115.061 31.23 115.002 31.23L115.001 31.2295ZM112.761 29.0891C112.719 27.9023 111.763 26.906 110.19 26.906C108.943 26.906 107.834 27.5332 107.449 29.0517C107.425 29.1454 107.497 29.2374 107.593 29.2374H112.613C112.695 29.2374 112.761 29.171 112.761 29.0891Z" fill="#0D0D0D"/>
<path d="M116.629 30.3182C116.629 26.991 118.988 24.6174 122.579 24.6174C123.876 24.6174 124.994 24.8963 125.797 25.3378C125.844 25.3639 125.873 25.4138 125.873 25.4678V28.0087C125.873 28.0906 125.806 28.1571 125.725 28.1571H125.679C125.653 28.1571 125.628 28.1505 125.606 28.1375C124.926 27.7458 123.943 27.4788 122.856 27.4788C121.092 27.4788 119.881 28.6021 119.881 30.3182C119.881 32.0343 121.05 33.179 122.877 33.179C123.964 33.179 124.928 32.8918 125.606 32.4995C125.628 32.4865 125.653 32.48 125.679 32.48H125.721C125.806 32.48 125.873 32.5464 125.873 32.6283V35.1675C125.873 35.2221 125.843 35.2731 125.795 35.2986C124.994 35.7217 123.897 36.0196 122.601 36.0196C118.967 36.0196 116.63 33.6252 116.63 30.3194L116.629 30.3182Z" fill="#0D0D0D"/>
<path d="M127.66 21.5287C127.795 20.6148 128.594 19.9817 129.446 19.9817C130.444 19.9817 131.295 20.7869 131.295 21.804C131.295 22.8211 130.474 23.5967 129.462 23.605C128.36 23.6139 127.499 22.6146 127.66 21.5281L127.66 21.5287ZM128 24.936H130.891C130.972 24.936 131.039 25.0024 131.039 25.0843V35.5317C131.039 35.6136 130.972 35.68 130.891 35.68H128C127.918 35.68 127.852 35.6136 127.852 35.5317V25.0843C127.852 25.0024 127.918 24.936 128 24.936Z" fill="#0D0D0D"/>
<path d="M132.727 30.3182C132.727 26.991 135.085 24.6174 138.677 24.6174C139.974 24.6174 141.092 24.8963 141.895 25.3378C141.942 25.3639 141.971 25.4138 141.971 25.4678V28.0087C141.971 28.0906 141.904 28.1571 141.822 28.1571H141.776C141.75 28.1571 141.725 28.1505 141.703 28.1375C141.024 27.7458 140.04 27.4788 138.954 27.4788C137.19 27.4788 135.978 28.6021 135.978 30.3182C135.978 32.0343 137.147 33.179 138.975 33.179C140.062 33.179 141.025 32.8918 141.703 32.4995C141.726 32.4865 141.751 32.48 141.776 32.48H141.819C141.904 32.48 141.971 32.5464 141.971 32.6283V35.1675C141.971 35.2221 141.941 35.2731 141.893 35.2986C141.092 35.7217 139.995 36.0196 138.699 36.0196C135.065 36.0196 132.727 33.6252 132.727 30.3194L132.727 30.3182Z" fill="#0D0D0D"/>
<path d="M144.189 20.7607H147.016C147.098 20.7607 147.164 20.8272 147.164 20.9091V35.5316C147.164 35.6135 147.098 35.68 147.016 35.68H144.189C144.107 35.68 144.041 35.6135 144.041 35.5316V20.9091C144.041 20.8272 144.107 20.7607 144.189 20.7607Z" fill="#0D0D0D"/>
<path d="M148.908 30.2973C148.908 27.055 151.607 24.6179 154.879 24.6179C158.151 24.6179 160.829 27.055 160.829 30.2973C160.829 33.5397 158.194 36.0189 154.858 36.0189C151.521 36.0189 148.908 33.561 148.908 30.2973ZM157.705 30.2973C157.705 28.6869 156.473 27.4787 154.879 27.4787C153.285 27.4787 152.032 28.6863 152.032 30.2973C152.032 31.9084 153.286 33.1367 154.858 33.1367C156.43 33.1367 157.705 31.9286 157.705 30.2973Z" fill="#0D0D0D"/>
<path d="M162.869 25.053C162.857 25.0411 162.852 25.0251 162.852 25.0044V22.2314C162.852 22.2106 162.857 22.1946 162.869 22.1827C162.881 22.1709 162.897 22.1655 162.918 22.1655H163.915C164.159 22.1655 164.367 22.2083 164.539 22.2943C164.71 22.3803 164.839 22.4961 164.924 22.642C165.01 22.788 165.052 22.9494 165.052 23.1268C165.052 23.2479 165.029 23.3636 164.981 23.4746C164.934 23.5849 164.86 23.6846 164.761 23.7725C164.662 23.8603 164.537 23.9273 164.387 23.9724L165.156 24.9913C165.166 25.0049 165.171 25.018 165.171 25.0305C165.171 25.0417 165.166 25.0506 165.157 25.0583C165.148 25.0661 165.135 25.0696 165.119 25.0696H164.424C164.403 25.0696 164.385 25.0661 164.371 25.0583C164.357 25.0506 164.343 25.037 164.329 25.0162L163.723 24.1291H163.556V25.0038C163.556 25.0245 163.55 25.0405 163.538 25.0524C163.526 25.0643 163.51 25.0696 163.489 25.0696H162.919C162.898 25.0696 162.882 25.0637 162.87 25.0524L162.869 25.053ZM164.228 23.4188C164.292 23.363 164.325 23.2876 164.325 23.1927C164.325 23.1251 164.308 23.0633 164.275 23.0058C164.241 22.9488 164.19 22.9031 164.123 22.8687C164.055 22.8343 163.974 22.8171 163.879 22.8171H163.556V23.5019H163.957C164.073 23.5019 164.163 23.474 164.228 23.4182L164.228 23.4188Z" fill="#0D0D0D"/>
<path d="M163.876 26.7909C162.195 26.7909 160.828 25.4273 160.828 23.7515C160.828 22.0758 162.195 20.7122 163.876 20.7122C165.556 20.7122 166.924 22.0758 166.924 23.7515C166.924 25.4273 165.556 26.7909 163.876 26.7909ZM163.876 21.3637C162.556 21.3637 161.481 22.4348 161.481 23.7515C161.481 25.0683 162.556 26.1394 163.876 26.1394C165.196 26.1394 166.27 25.0683 166.27 23.7515C166.27 22.4348 165.196 21.3637 163.876 21.3637Z" fill="#0D0D0D"/>
</svg>
