<svg xmlns="http://www.w3.org/2000/svg" xmlns:v="https://vecta.io/nano" viewBox="46.4 57.56 758.95 121.83">
    <path d="M46.4 58.03V87.8h89.32v89.37h29.77V58.08h-.06v-.05zm44.64 44.69H46.43v29.76h44.61v44.69h29.79v-74.45zM46.41 147.4h29.77v29.78H46.41z" fill="#ffc43d" />
    <path d="M704.08 59.87V176.8h101.27v-29.23h-72.4v-87.7zm-268.14.07h28.94v116.87h-28.94zm-233.31 0v29.17h36.55v87.69h29.53V89.11h36.47V59.94zm329.66 43.35c-10.52-1.05-21.92-2.03-21.92-10.7 0-6.4 9.97-9.26 18.38-9.26 9.67 0 17.77 1.98 24.75 6.07l.37.22 18.92-18.59-.51-.38c-12.15-9.06-25.58-13.09-43.54-13.09-24.65 0-49.6 12.03-49.6 35.04 0 22.24 15.34 34.17 48.27 37.54 14.21 1.45 21.32 4.75 21.32 11.03 0 6.51-8.56 10.71-20.17 10.71-13.3 0-24.16-3.77-33.22-11.52l-.39-.34-19.46 19.14.41.38c18.76 17.91 42.96 19.84 52.5 19.84 35.91 0 51.98-18.94 51.98-37.71.01-27.52-26.14-36.06-48.09-38.38M660.65 59.9v69.52c0 11.57-9.38 20.95-20.95 20.95h-2.01c-11.57 0-20.95-9.38-20.95-20.95V59.9l-28.9.09v70.99c0 26.74 21.67 48.41 48.41 48.41h4.9c26.74 0 48.42-21.67 48.42-48.41V59.99l-28.92-.09zM348.44 89.16h28.93a14.61 14.61 0 1 1 0 29.22h-28.93V89.16zm72.77 14.6c0-24.17-19.66-43.83-43.83-43.83h-28.93-29.23v29.23 29.21 15.02 14.21 29.21h.02 29.13.12V147.6h22.2l20.92 29.21h29.42v-2.86l-22.7-31.68c13.61-7.45 22.88-21.92 22.88-38.51" fill="#001740" />
    <path d="M46.41 177.18h29.76V147.4zm44.63-44.7v44.69h29.79v-74.45zm44.68-44.68v89.37h29.77V58.08h-.06v-.05z" fill="#c58f18" />
</svg>